<svg id="visual" viewBox="0 0 675 900" width="675" height="900" xmlns="http://www.w3.org/2000/svg" xmlns:xlink="http://www.w3.org/1999/xlink" version="1.1"><rect x="0" y="0" width="675" height="900" fill="#023052"></rect><path d="M0 681L22.5 676.8C45 672.7 90 664.3 135 635.2C180 606 225 556 270 549.2C315 542.3 360 578.7 405 615.3C450 652 495 689 540 677.8C585 666.7 630 607.3 652.5 577.7L675 548L675 901L652.5 901C630 901 585 901 540 901C495 901 450 901 405 901C360 901 315 901 270 901C225 901 180 901 135 901C90 901 45 901 22.5 901L0 901Z" fill="#DA950C" stroke-linecap="round" stroke-linejoin="miter"></path></svg>