<svg width="177" height="155" viewBox="0 0 177 155" fill="none" xmlns="http://www.w3.org/2000/svg">
<g clip-path="url(#clip0_1068_261)">
<path opacity="0.18" d="M37.753 22.6877C49.6006 20.6891 61.7992 22.0657 73.5459 19.3228C85.8323 16.4524 97.0217 9.22802 108.865 4.43047C120.708 -0.367072 134.386 -2.52367 145.373 4.50695C152.1 8.81505 157.05 16.1108 160.933 23.8297C168.587 39.0518 172.735 56.309 172.978 73.9363C173.088 82.6748 172.214 91.4746 169.906 99.7951C162.192 127.601 138.844 146.848 114.223 152.782C87.1838 159.303 57.7842 151.355 35.9495 131.721C17.3576 114.973 -1.02812 85.1119 5.27743 57.9122C9.4592 39.8232 19.9904 25.6855 37.753 22.6877Z" fill="#145E92"/>
<path d="M130.691 97.1541L117.202 108.753C116.915 108.999 116.555 109.103 116.203 109.042C115.85 108.981 115.532 108.76 115.319 108.427L109.725 99.6421C109.619 99.4784 109.545 99.2908 109.505 99.0915C109.44 98.7918 109.452 98.4762 109.541 98.1848C109.63 97.8934 109.792 97.6394 110.006 97.4549L123.499 85.8562C123.658 85.7199 123.841 85.626 124.035 85.581C124.23 85.5361 124.43 85.5413 124.622 85.5961C124.925 85.6858 125.193 85.8926 125.381 86.1825L130.976 94.972C131.08 95.137 131.156 95.3244 131.198 95.5234C131.241 95.7223 131.249 95.9291 131.222 96.1317C131.196 96.3344 131.135 96.529 131.044 96.7044C130.953 96.8798 130.833 97.0326 130.691 97.1541Z" fill="#145E92"/>
<path d="M124.622 85.5961L122.125 98.6275L109.505 99.0915C109.44 98.7918 109.452 98.4762 109.541 98.1848C109.63 97.8934 109.792 97.6394 110.006 97.4549L123.499 85.8562C123.658 85.7199 123.841 85.626 124.035 85.581C124.23 85.5361 124.43 85.5413 124.622 85.5961Z" fill="url(#paint0_linear_1068_261)"/>
<path d="M117.597 98.7958L118.009 108.054L130.69 97.1541L123.016 93.9677L122.125 98.6275L117.597 98.7958Z" fill="url(#paint1_linear_1068_261)"/>
<path d="M133.201 23.0037L118.132 47.9499L115.236 38.6148C105.235 41.7012 95.3894 45.4304 85.7444 49.7853C74.6252 54.9296 63.9185 61.3229 60.8425 67.9303C53.791 83.1081 70.3557 89.8176 70.3557 89.8176C67.2042 90.1104 64.0351 90.0215 60.8995 89.5524C52.6369 88.2932 42.3778 83.6435 45.3485 67.9303C47.696 55.5159 62.9794 45.0745 77.9952 37.636H78.0171C80.2111 36.5551 82.4051 35.5405 84.5377 34.577L84.5991 34.5464C92.6321 30.9777 100.825 27.9142 109.141 25.3693L107.698 17.2018L133.201 23.0037Z" fill="#145E92"/>
<path d="M60.8427 67.9304C53.7911 83.1082 70.3558 89.8176 70.3558 89.8176C67.2044 90.1104 64.0353 90.0215 60.8997 89.5525C59.6581 87.8732 58.4979 86.1149 57.4244 84.2859C47.9156 68.2159 68.311 55.5516 68.311 55.5516C70.0092 48.3476 77.9953 42.3876 77.9953 42.3876V37.636H78.0173L84.5378 34.577L84.5993 34.5464L86.0341 48.4751L85.7445 49.7752C74.6254 54.9296 63.9186 61.3229 60.8427 67.9304Z" fill="url(#paint2_linear_1068_261)"/>
<path d="M107.083 120.341C106.682 121.135 106.433 122.02 106.355 122.936C106.368 123.853 106.624 124.743 107.088 125.486C108.04 127.127 109.5 128.279 111.164 128.703C111.382 128.78 111.616 128.768 111.827 128.667C111.971 128.564 112.083 128.411 112.147 128.229C112.546 127.285 112.384 126.164 112.121 125.17C111.858 124.175 111.498 123.166 111.537 122.111C111.603 120.137 114.03 116.329 111.204 115.401C108.847 114.606 107.834 118.582 107.083 120.341Z" fill="#B2857F"/>
<path d="M105.425 122.916C105.425 122.916 104.591 123.711 104.749 124.588C104.907 125.465 107.904 131.578 112.173 130.88C116.443 130.181 109.431 125.272 109.431 125.272L105.425 122.916Z" fill="#145E92"/>
<path d="M106.714 120.657C106.889 120.665 107.056 120.745 107.184 120.884C107.312 121.022 107.393 121.21 107.412 121.412C107.523 121.994 107.761 122.534 108.102 122.98C108.443 123.426 108.876 123.764 109.36 123.961C110.475 124.313 111.493 123.232 111.993 123.538C112.493 123.844 113.898 128.101 113.529 129.314C113.16 130.528 111.432 130.497 109.896 129.666C108.36 128.835 105.56 125.516 105.345 124.206C105.13 122.896 106.104 121.009 106.714 120.657Z" fill="white"/>
<path d="M88.9784 127.392C88.5644 128.297 88.3249 129.296 88.2764 130.319C88.3367 131.328 88.6579 132.293 89.1978 133.087C90.3247 134.862 91.9969 136.063 93.8667 136.442C94.1111 136.517 94.3705 136.49 94.5995 136.366C94.754 136.238 94.873 136.061 94.9417 135.856C95.3454 134.785 95.1129 133.546 94.7838 132.445C94.4547 131.344 94.0159 130.258 93.9983 129.095C93.9983 126.903 96.5302 122.524 93.3533 121.652C90.6985 120.923 89.7332 125.399 88.9784 127.392Z" fill="#B2857F"/>
<path d="M87.2364 130.385C87.2364 130.385 86.3588 131.318 86.5563 132.282C86.7537 133.245 90.3431 139.878 95.0646 138.859C99.7861 137.839 91.7912 132.817 91.7912 132.817L87.2364 130.385Z" fill="#145E92"/>
<path d="M88.5747 127.775C88.771 127.772 88.9613 127.853 89.1106 128.001C89.2598 128.149 89.3578 128.355 89.3865 128.58C89.5332 129.22 89.8189 129.805 90.2161 130.279C90.6134 130.753 91.1089 131.1 91.6551 131.288C92.9101 131.614 94.0027 130.365 94.5555 130.671C95.1084 130.977 96.8636 135.642 96.495 137.003C96.1265 138.364 94.2089 138.435 92.4669 137.599C90.7248 136.763 87.4733 133.225 87.2013 131.782C86.9292 130.339 87.9121 128.203 88.5747 127.775Z" fill="white"/>
<path d="M98.4432 74.2218C98.5626 74.246 98.68 74.2818 98.7942 74.3289C101.567 75.5525 104.907 81.0077 106.794 83.5977C109.246 86.8777 111.288 90.544 112.858 94.4877C116.043 102.752 116.337 113.02 111.862 120.433L108.422 119.597C108.121 119.558 107.838 119.414 107.61 119.184C107.492 118.984 107.411 118.759 107.371 118.521C107.331 118.284 107.333 118.039 107.377 117.802C107.559 114.947 107.445 112.077 107.039 109.253C106.812 107.317 106.302 105.441 105.53 103.706C104.45 101.447 102.748 99.6983 101.089 97.9852C95.8236 92.5657 91.1021 86.9626 88.4912 79.2998C90.8476 77.9538 95.9025 73.7018 98.4432 74.2218Z" fill="#473F47"/>
<path d="M90.4748 78.382C90.5884 78.4345 90.6959 78.503 90.7951 78.5859C93.248 80.5233 95.4025 86.7433 96.7189 89.7615C98.443 93.6183 99.6926 97.7372 100.431 101.998C101.866 110.894 100.098 120.958 94.2573 126.979L91.076 125.231C90.7928 125.112 90.5467 124.897 90.3695 124.614C90.2958 124.386 90.2624 124.144 90.2715 123.901C90.2805 123.659 90.3318 123.421 90.4221 123.202C91.1726 120.474 91.6381 117.651 91.8088 114.794C91.9769 112.851 91.8567 110.889 91.4533 108.992C90.861 106.51 89.5533 104.348 88.2852 102.227C84.2702 95.5379 80.7861 88.803 79.7856 80.6457C82.3438 79.9727 88.1141 77.2094 90.4748 78.382Z" fill="#473F47"/>
<path d="M104.766 58.9624C104.769 58.9844 104.769 59.0067 104.766 59.0287C104.806 59.8801 105.047 60.6296 104.859 61.4963C104.657 62.4599 103.884 63.3317 103.042 63.1889C102.34 63.0717 101.862 62.3375 101.322 61.8022C100.757 61.2767 100.131 60.8475 99.4614 60.5276C98.5838 60.0534 97.6798 59.6099 96.7759 59.202C96.1967 58.9369 95.0909 58.7738 94.8452 58.0855C94.5995 57.3972 94.6784 56.3113 94.6082 55.5822L93.5156 44.014L103.683 53.7009C104.1 54.7602 104.424 55.8652 104.652 56.9995C104.749 57.6474 104.788 58.3053 104.766 58.9624Z" fill="white"/>
<path d="M97.2189 60.237C97.2803 60.9202 97.4163 61.5982 97.4865 62.2763C97.8551 66.044 97.4558 70.036 98.7722 73.61C99.0706 74.4053 99.4567 75.2516 99.2812 76.098C99.0668 76.8152 98.6347 77.417 98.0657 77.7906C95.3803 79.9727 92.12 80.9465 88.9431 81.8693C86.5516 82.5728 83.186 83.8525 80.799 82.6187C79.7809 82.1089 79.3421 80.9261 78.9253 79.7637C77.6089 76.0623 76.9156 71.9836 76.2925 68.0375C76.2135 67.5276 76.1301 67.0178 76.0555 66.4825C75.5378 62.9238 75.1326 59.3346 74.8401 55.7147C74.6382 53.084 74.5461 50.2289 75.8361 48.0672C77.5475 45.1816 81.1719 42.9689 83.9934 41.9492C84.9059 41.6079 85.8565 41.4241 86.8149 41.4037C88.1804 41.4778 89.525 41.8227 90.7904 42.4234C92.2955 43.0606 93.6339 43.5909 94.4895 45.1408C95.4382 46.9413 96.1649 48.8874 96.6484 50.9223C97.1038 52.8279 97.3297 54.7976 97.3198 56.7752C97.3198 57.7439 97.2057 58.7228 97.2101 59.6864C97.1962 59.8697 97.1992 60.0543 97.2189 60.237Z" fill="white"/>
<path opacity="0.1" d="M85.9856 83.2816C85.0729 83.7251 82.8087 82.996 82.0759 82.94C81.6371 82.9094 81.1983 82.7054 80.7595 82.6443C78.5655 82.2925 77.6309 75.3077 77.2491 73.4672C76.2223 68.5473 74.8796 63.4898 74.3443 58.4934C74.1424 56.5611 73.9976 54.588 74.3706 52.6966C74.7436 50.8051 75.687 48.9799 77.2009 48.108C79.8337 46.6091 81.6108 56.5968 82.1856 58.6361C82.9053 61.1853 83.6293 63.7345 84.3445 66.2837C84.6605 67.4257 84.7614 68.6952 85.3011 69.7403C86.1217 71.3259 86.815 71.0251 88.1884 70.76C91.0713 70.1788 93.7656 68.7564 96.6046 67.961C96.7213 67.9103 96.8457 67.8878 96.9702 67.8948C97.0947 67.9018 97.2167 67.9382 97.3286 68.0018C97.4816 68.148 97.5856 68.3518 97.6226 68.5779C97.7898 69.2217 97.8813 69.8889 97.8947 70.5612C97.9113 70.7536 97.8872 70.9479 97.8245 71.1271C97.7254 71.3101 97.588 71.4609 97.4252 71.5655C95.5063 73.0404 93.399 74.1536 91.181 74.8642C89.4258 75.4352 87.7628 76.3937 86.578 78.0965C85.5117 79.626 86.8983 81.2371 86.3191 82.8941C86.2889 82.9814 86.2438 83.0608 86.1864 83.1274C86.1291 83.194 86.0608 83.2464 85.9856 83.2816Z" fill="#020202"/>
<path d="M83.9849 75.5779L100.808 68.9857L113.148 77.1635L95.9773 85.3412L83.9849 75.5779Z" fill="#145E92"/>
<path d="M83.9849 75.5779L100.808 68.9857L113.148 77.1635L95.9773 85.3412L83.9849 75.5779Z" fill="url(#paint3_linear_1068_261)"/>
<path d="M84.6782 74.5226L101.502 67.9304L113.841 76.1082L96.6706 84.2859L84.6782 74.5226Z" fill="#145E92"/>
<path d="M97.4954 83.1591L111.414 76.0163L104.621 71.6827L90.7817 77.7702L97.4954 83.1591Z" fill="url(#paint4_linear_1068_261)"/>
<path d="M96.6704 84.2859H113.261L127.544 73.9515L113.841 76.1081L96.6704 84.2859Z" fill="#145E92"/>
<path d="M91.0101 36.9171C90.8389 37.636 90.6546 38.3548 90.4572 39.0686C90.0184 40.7001 89.1408 42.1888 87.6138 42.5814C87.2763 42.6568 86.9346 42.7045 86.5914 42.7241C86.5255 42.7241 86.4509 42.7241 86.3632 42.7241C86.3584 42.7268 86.3532 42.7282 86.3478 42.7282C86.3425 42.7282 86.3373 42.7268 86.3325 42.7241H86.293C86.1216 42.7148 85.95 42.7354 85.784 42.7853C85.7376 42.7881 85.6924 42.8038 85.6523 42.8312C85.2135 43.0657 85.2486 43.8916 85.2793 44.3607C85.3874 44.8884 85.3347 45.4434 85.1302 45.931C85.1302 45.931 85.1302 45.9616 85.1038 45.982C84.9822 46.1361 84.8353 46.2606 84.6719 46.3482C84.5084 46.4357 84.3315 46.4845 84.1516 46.4918C83.3951 46.5628 82.6436 46.2967 82.0498 45.7474C81.71 45.3809 81.4369 44.9388 81.2468 44.4474C81.1873 44.3077 81.1374 44.1628 81.0976 44.014C81.0478 43.7617 81.0286 43.5026 81.0405 43.2442C81.0486 42.8477 81.0808 42.4525 81.1371 42.0613C81.2989 41.2895 81.4264 40.5084 81.5188 39.7212C81.5246 39.3224 81.548 38.9242 81.589 38.5282C81.6452 38.2752 81.6862 38.0179 81.7119 37.7583C81.7119 37.0089 81.3828 36.2849 81.3784 35.5253C81.3726 34.774 81.4329 34.0241 81.5583 33.2871C81.7924 31.8252 82.3403 30.4557 83.1512 29.3053C84.6563 27.2659 87.3242 26.2463 89.4216 27.4087C90.4697 27.9897 91.283 29.0205 91.6902 30.2842C92.3923 32.4306 91.5147 34.8217 91.0101 36.9171Z" fill="#B2857F"/>
<path d="M88.8248 73.7222C89.1934 73.6712 89.5664 73.6253 89.935 73.5896C90.1548 73.5537 90.3786 73.5693 90.5932 73.6355C90.6987 73.6676 90.795 73.7317 90.8721 73.8213C90.9492 73.9109 91.0044 74.0227 91.032 74.1453C91.0297 74.2385 91.0462 74.3311 91.0803 74.4155C91.1365 74.4911 91.2145 74.5401 91.2997 74.5532C92.6161 74.9509 93.9764 75.5729 94.7618 76.8322C94.8553 76.9513 94.9206 77.0967 94.9514 77.2539C94.9822 77.4112 94.9773 77.575 94.9373 77.7295C94.7574 78.1577 94.2309 78.0965 93.8359 77.9691C93.8926 78.0633 93.923 78.1754 93.923 78.2903C93.923 78.4052 93.8926 78.5173 93.8359 78.6115C93.7768 78.704 93.6991 78.7783 93.6097 78.8281C93.5202 78.8778 93.4217 78.9015 93.3225 78.897C93.192 78.869 93.0582 78.869 92.9276 78.897C92.8381 78.9454 92.7553 79.0089 92.6819 79.0856C92.4971 79.2275 92.2893 79.3241 92.0713 79.3697C91.8533 79.4153 91.6296 79.4088 91.4138 79.3507C90.975 79.2743 90.5362 79.1009 90.0974 79.0601C89.4172 78.999 88.8073 79.259 88.1754 78.9378C87.4787 78.5371 86.7417 78.2391 85.9814 78.0507C85.7396 78.0055 85.5166 77.8715 85.3452 77.6683C85.2713 77.4956 85.2329 77.3054 85.2329 77.1126C85.2329 76.9197 85.2713 76.7295 85.3452 76.5568C85.4588 75.9313 85.6636 75.333 85.9507 74.7877C86.3237 74.1759 86.9468 74.0689 87.5567 73.9465C88.0043 73.8598 88.4036 73.7935 88.8248 73.7222Z" fill="#B2857F"/>
<path d="M75.8277 48.0622C72.6025 54.2668 69.4168 61.4555 68.4997 68.685C68.2584 70.5867 68.1267 72.8299 68.8946 74.6144C70.1496 77.5204 74.4191 78.0863 76.8764 78.3769C79.8189 78.7236 82.7819 78.7696 85.7314 78.5146C85.7959 78.5288 85.8624 78.5243 85.9251 78.5014C85.9877 78.4786 86.0446 78.4382 86.0906 78.3837C86.1366 78.3293 86.1703 78.2625 86.1888 78.1893C86.2073 78.116 86.2099 78.0387 86.1965 77.964L86.3194 74.6653C86.3397 74.5114 86.3214 74.3538 86.2667 74.2116C86.1898 74.1077 86.0929 74.0263 85.9839 73.974C85.8749 73.9218 85.7568 73.9001 85.6392 73.9108C83.9205 73.7508 82.2318 73.2955 80.6281 72.5597C79.1055 71.8562 76.1304 70.0106 76.3454 67.6857C76.4639 66.3805 77.6969 64.7898 78.3069 63.76C79.7725 61.2873 81.3521 58.891 82.9669 56.5458C82.9669 56.5458 83.1249 43.2034 75.8277 48.0622Z" fill="white"/>
<path d="M90.5051 33.9193C90.7233 33.8606 90.9284 33.749 91.1069 33.5917C91.2854 33.4344 91.4332 33.235 91.5407 33.0067C91.7206 33.593 92.5719 33.4145 92.7869 32.8384C93.0019 32.2623 92.7869 31.6097 92.5938 31.0336C92.7954 30.9785 92.9819 30.8658 93.1366 30.7059C93.2913 30.546 93.4093 30.3438 93.4798 30.1176C93.5504 29.8914 93.5713 29.6483 93.5407 29.4103C93.5102 29.1724 93.429 28.947 93.3047 28.7546C93.1599 28.566 92.958 28.4029 92.9185 28.1479C92.9091 27.9537 92.9345 27.7592 92.9931 27.5769C93.0205 27.2776 92.9793 26.9752 92.8737 26.7004C92.7682 26.4255 92.602 26.1879 92.3919 26.0117C91.9606 25.666 91.4789 25.4138 90.9702 25.2674C91.1068 25.0093 91.1576 24.7023 91.1132 24.4038C91.0688 24.1053 90.9321 23.8359 90.7289 23.6461C90.3128 23.277 89.8084 23.0668 89.2852 23.0445C88.5261 22.9476 87.688 22.9884 87.0912 23.5543C86.6837 23.2605 86.2035 23.133 85.7266 23.1921C85.2497 23.2512 84.8034 23.4935 84.4584 23.8806C84.3359 24.0781 84.1645 24.2275 83.967 24.3089C83.8259 24.3207 83.6843 24.2927 83.5545 24.2273C83.0012 23.9524 82.3891 23.8795 81.7993 24.0183C81.5045 24.0999 81.2468 24.307 81.077 24.5987C80.9072 24.8904 80.8377 25.2454 80.8822 25.5937C80.6643 25.6241 80.4597 25.7312 80.2957 25.9008C80.1318 26.0703 80.0164 26.294 79.9651 26.542C79.9552 26.6975 79.913 26.8479 79.8423 26.9804C79.715 27.1538 79.4912 27.1436 79.3025 27.164C78.9426 27.2004 78.6078 27.3932 78.3649 27.704C78.122 28.0147 77.9889 28.4204 77.9922 28.8402C77.9956 29.2599 78.1351 29.6628 78.3828 29.9682C78.6306 30.2737 78.9684 30.4594 79.3289 30.4881C79.2874 30.6929 79.2827 30.9055 79.3152 31.1126C79.3477 31.3196 79.4166 31.5166 79.5176 31.6913C79.7501 32.1247 80.0617 32.1552 80.3688 32.4255C80.5487 32.5886 80.4785 32.6039 80.4698 32.9353C80.4609 33.2402 80.4741 33.5455 80.5092 33.8479C80.5691 34.4303 80.6945 35.0011 80.8822 35.5456C81.0139 35.9382 81.1806 36.3155 81.2991 36.7132C81.4623 37.3223 81.5711 37.9493 81.6238 38.5843L82.3654 36.1473C82.3737 36.1139 82.3737 36.0786 82.3654 36.0453C82.3505 36 82.3226 35.9622 82.2864 35.9382C81.963 35.6454 81.7354 35.2331 81.6413 34.7695C81.5471 34.306 81.592 33.8189 81.7686 33.389C81.8179 33.2542 81.8963 33.1365 81.9962 33.0472C82.0962 32.9578 82.2142 32.9 82.339 32.8792C82.6374 32.8792 82.8656 33.18 83.0104 33.4808C83.1645 33.8013 83.2811 34.1442 83.3571 34.5005C83.5578 33.9426 83.8349 33.4261 84.1776 32.971C84.3224 32.7823 84.4979 32.4611 84.7305 32.558C84.9631 32.6549 85.0728 33.1443 85.1693 33.3228C85.515 33.1665 85.8299 32.9307 86.0952 32.6294C86.0646 32.9832 86.1219 33.3398 86.2603 33.6569C86.3988 33.9741 86.6125 34.2385 86.8762 34.4189C87.4291 34.7197 88.2321 34.2915 88.2321 33.5777C88.2321 33.8989 89.43 33.3585 89.5178 33.2973C89.6104 33.5034 89.7538 33.6727 89.9297 33.7835C90.1056 33.8943 90.3059 33.9416 90.5051 33.9193Z" fill="#473F47"/>
<path d="M84.7174 42.7497C85.0708 42.8035 85.4276 42.8206 85.7837 42.8007C85.7372 42.8035 85.6921 42.8192 85.652 42.8465C85.2132 43.0811 85.2483 43.907 85.279 44.376C85.3871 44.9038 85.3344 45.4587 85.1298 45.9463C84.9932 45.9475 84.8572 45.9252 84.7261 45.8801C84.592 45.825 84.4683 45.7402 84.3619 45.6302C83.964 45.2496 83.6729 44.7396 83.5259 44.1656C83.379 43.5915 83.3828 42.9796 83.537 42.4081C83.9169 42.5779 84.3133 42.6926 84.7174 42.7497Z" fill="#96625E"/>
<path d="M102.107 52.207C102.107 52.207 110.142 59.0949 109.031 65.9726C108 72.371 107.074 77.4592 107.074 77.4592L103.314 74.91C103.314 74.91 105.828 65.269 100.58 61.0782C95.3321 56.8873 102.107 52.207 102.107 52.207Z" fill="white"/>
<path d="M102.647 74.8132L102.287 76.98C102.224 77.2545 102.215 77.5421 102.261 77.8212C102.285 77.9606 102.349 78.0864 102.442 78.1788C102.535 78.2712 102.652 78.3248 102.774 78.331C103.038 78.331 103.261 77.9946 103.525 78.0557C103.619 78.0883 103.708 78.1382 103.788 78.2036C104.35 78.5605 105.03 78.2036 105.622 77.8824C105.717 77.8206 105.826 77.7973 105.934 77.8161C106.061 77.8569 106.14 78.0047 106.25 78.0965C106.359 78.1732 106.486 78.2093 106.614 78.2002C106.742 78.1911 106.864 78.1372 106.965 78.0455C107.164 77.8536 107.315 77.6037 107.404 77.3216C107.64 76.7186 107.742 76.0565 107.702 75.3957C107.661 74.7349 107.479 74.0964 107.171 73.5386C106.834 73.0549 106.392 72.6852 105.89 72.4682C105.388 72.2511 104.846 72.1947 104.319 72.3048C103.178 72.5138 102.853 73.5539 102.647 74.8132Z" fill="#B2857F"/>
<path d="M95.9771 85.3412H112.568L126.851 75.0068L113.147 77.1634L95.9771 85.3412Z" fill="#145E92"/>
<path d="M96.6704 84.2859L95.9771 85.3412H112.568L113.261 84.2859H96.6704Z" fill="url(#paint5_linear_1068_261)"/>
<path d="M127.545 73.9515L126.851 75.0069L112.568 85.3412L113.262 84.2859L127.545 73.9515Z" fill="#145E92"/>
<path d="M127.545 73.9515L126.851 75.0069L112.568 85.3412L113.262 84.2859L127.545 73.9515Z" fill="url(#paint6_linear_1068_261)"/>
<path d="M114.007 76.5671L125.355 74.7266L113.52 83.1592L100.606 83.4192L114.007 76.5671Z" fill="white"/>
<path d="M94.6739 75.425L101.098 72.6566L98 70.0259L91.4092 72.6566L94.6739 75.425Z" fill="url(#paint7_linear_1068_261)"/>
<path d="M80.9263 103.96L55.4364 117.481C54.894 117.768 54.2757 117.794 53.7172 117.552C53.1586 117.31 52.7054 116.821 52.457 116.191L45.9364 99.5912C45.8116 99.283 45.7443 98.9477 45.7389 98.6072C45.722 98.0897 45.8382 97.5781 46.0726 97.1376C46.3071 96.6972 46.6492 96.348 47.0553 96.1345L72.5452 82.6137C72.8474 82.4558 73.1756 82.3767 73.5069 82.382C73.8382 82.3872 74.1645 82.4768 74.4628 82.6443C74.9321 82.9075 75.3077 83.3529 75.5247 83.9035L82.0365 100.509C82.1586 100.82 82.2269 101.156 82.2372 101.498C82.2475 101.84 82.1998 102.181 82.0967 102.502C81.9936 102.822 81.8372 103.116 81.6364 103.366C81.4355 103.617 81.1943 103.819 80.9263 103.96Z" fill="#145E92"/>
<path d="M80.9263 103.96L55.4364 117.481C54.894 117.768 54.2757 117.794 53.7172 117.552C53.1586 117.31 52.7054 116.821 52.457 116.191L45.9364 99.5912C45.8116 99.283 45.7443 98.9477 45.7389 98.6072C45.722 98.0897 45.8382 97.5781 46.0726 97.1376C46.3071 96.6972 46.6492 96.348 47.0553 96.1345L72.5452 82.6137C72.8474 82.4558 73.1756 82.3767 73.5069 82.382C73.8382 82.3872 74.1645 82.4768 74.4628 82.6443C74.9321 82.9075 75.3077 83.3529 75.5247 83.9035L82.0365 100.509C82.1586 100.82 82.2269 101.156 82.2372 101.498C82.2475 101.84 82.1998 102.181 82.0967 102.502C81.9936 102.822 81.8372 103.116 81.6364 103.366C81.4355 103.617 81.1943 103.819 80.9263 103.96Z" fill="url(#paint8_linear_1068_261)"/>
<path d="M82.1068 103.364L56.6169 116.885C56.0745 117.172 55.4562 117.197 54.8977 116.956C54.3391 116.714 53.8859 116.224 53.6374 115.595L47.1169 98.9997C46.9937 98.6907 46.9251 98.3561 46.915 98.0157C46.899 97.4978 47.0155 96.9859 47.2498 96.5449C47.4841 96.1038 47.8257 95.7534 48.2314 95.5379L73.7213 82.0222C74.2634 81.7361 74.8808 81.7107 75.4389 81.9513C75.997 82.192 76.4506 82.6793 76.7008 83.307L83.2213 99.9123C83.3434 100.224 83.4114 100.56 83.4214 100.903C83.4314 101.245 83.3833 101.586 83.2798 101.907C83.1763 102.227 83.0194 102.521 82.8181 102.771C82.6169 103.021 82.3751 103.222 82.1068 103.364Z" fill="#145E92"/>
<path d="M75.6301 82.0222L67.6703 102.303L46.915 97.9902C46.899 97.4722 47.0155 96.9604 47.2498 96.5193C47.4841 96.0783 47.8257 95.7279 48.2314 95.5124L73.7213 81.9967C74.0215 81.8375 74.3482 81.7572 74.6782 81.7616C75.0081 81.7661 75.3332 81.855 75.6301 82.0222Z" fill="url(#paint9_linear_1068_261)"/>
<path d="M60.2283 100.754L58.144 116.043L82.1069 103.338L70.5182 95.0485L67.6704 102.303L60.2283 100.754Z" fill="url(#paint10_linear_1068_261)"/>
<path d="M136.68 71.0709L120.217 67.293C120.043 67.2534 119.879 67.1745 119.732 67.0607C119.585 66.947 119.458 66.8007 119.36 66.6302C119.262 66.4597 119.194 66.2684 119.159 66.0672C119.125 65.866 119.125 65.6589 119.159 65.4576L120.98 54.7511C121.012 54.5504 121.079 54.3595 121.178 54.1903C121.324 53.9312 121.534 53.7288 121.78 53.6089C122.027 53.489 122.298 53.4571 122.56 53.5173L139.024 57.2952C139.219 57.3378 139.403 57.4309 139.562 57.5678C139.722 57.7046 139.853 57.8816 139.945 58.0854C140.094 58.4049 140.143 58.7738 140.086 59.1306L138.26 69.8371C138.227 70.0389 138.159 70.2309 138.061 70.4023C137.964 70.5736 137.838 70.7208 137.691 70.8354C137.544 70.9501 137.379 71.0299 137.206 71.0703C137.033 71.1107 136.854 71.1109 136.68 71.0709Z" fill="#145E92"/>
<path d="M139.945 58.0753L129.975 64.7032L121.199 54.1802C121.346 53.9211 121.556 53.7186 121.802 53.5988C122.048 53.4789 122.32 53.447 122.581 53.5072L139.045 57.2851C139.236 57.3311 139.416 57.4259 139.571 57.5626C139.727 57.6993 139.855 57.8744 139.945 58.0753Z" fill="url(#paint11_linear_1068_261)"/>
<path d="M126.82 60.9253L121.208 67.5175L136.68 71.071L133.538 62.3324L129.975 64.7032L126.82 60.9253Z" fill="url(#paint12_linear_1068_261)"/>
</g>
<defs>
<linearGradient id="paint0_linear_1068_261" x1="111.761" y1="77.6197" x2="126.63" y2="108.183" gradientUnits="userSpaceOnUse">
<stop offset="0.01" stop-color="white"/>
<stop offset="1" stop-color="white" stop-opacity="0"/>
</linearGradient>
<linearGradient id="paint1_linear_1068_261" x1="103.344" y1="87.2061" x2="162.499" y2="119.28" gradientUnits="userSpaceOnUse">
<stop offset="0.01"/>
<stop offset="0.08" stop-opacity="0.69"/>
<stop offset="0.21" stop-opacity="0.32"/>
<stop offset="1" stop-opacity="0"/>
</linearGradient>
<linearGradient id="paint2_linear_1068_261" x1="120.787" y1="100.198" x2="-17.2265" y2="19.005" gradientUnits="userSpaceOnUse">
<stop offset="0.01"/>
<stop offset="0.08" stop-opacity="0.69"/>
<stop offset="0.21" stop-opacity="0.32"/>
<stop offset="1" stop-opacity="0"/>
</linearGradient>
<linearGradient id="paint3_linear_1068_261" x1="100.062" y1="67.3797" x2="85.7482" y2="131.013" gradientUnits="userSpaceOnUse">
<stop offset="0.01"/>
<stop offset="0.08" stop-opacity="0.69"/>
<stop offset="0.21" stop-opacity="0.32"/>
<stop offset="1" stop-opacity="0"/>
</linearGradient>
<linearGradient id="paint4_linear_1068_261" x1="93.0679" y1="69.3732" x2="135.609" y2="98.8873" gradientUnits="userSpaceOnUse">
<stop offset="0.01"/>
<stop offset="0.08" stop-opacity="0.69"/>
<stop offset="0.21" stop-opacity="0.32"/>
<stop offset="1" stop-opacity="0"/>
</linearGradient>
<linearGradient id="paint5_linear_1068_261" x1="91.5671" y1="93.9523" x2="168.352" y2="54.1402" gradientUnits="userSpaceOnUse">
<stop offset="0.01"/>
<stop offset="0.08" stop-opacity="0.69"/>
<stop offset="0.21" stop-opacity="0.32"/>
<stop offset="1" stop-opacity="0"/>
</linearGradient>
<linearGradient id="paint6_linear_1068_261" x1="115.662" y1="72.7636" x2="145.558" y2="107.441" gradientUnits="userSpaceOnUse">
<stop offset="0.01"/>
<stop offset="0.08" stop-opacity="0.69"/>
<stop offset="0.21" stop-opacity="0.32"/>
<stop offset="1" stop-opacity="0"/>
</linearGradient>
<linearGradient id="paint7_linear_1068_261" x1="94.2833" y1="69.3529" x2="105.16" y2="82.8432" gradientUnits="userSpaceOnUse">
<stop offset="0.01"/>
<stop offset="0.08" stop-opacity="0.69"/>
<stop offset="0.21" stop-opacity="0.32"/>
<stop offset="1" stop-opacity="0"/>
</linearGradient>
<linearGradient id="paint8_linear_1068_261" x1="67.7009" y1="97.1695" x2="10.9189" y2="129.751" gradientUnits="userSpaceOnUse">
<stop offset="0.01"/>
<stop offset="0.08" stop-opacity="0.69"/>
<stop offset="0.21" stop-opacity="0.32"/>
<stop offset="1" stop-opacity="0"/>
</linearGradient>
<linearGradient id="paint9_linear_1068_261" x1="56.9995" y1="63.8437" x2="69.4673" y2="120.338" gradientUnits="userSpaceOnUse">
<stop offset="0.01" stop-color="white"/>
<stop offset="1" stop-color="white" stop-opacity="0"/>
</linearGradient>
<linearGradient id="paint10_linear_1068_261" x1="40.3932" y1="76.1233" x2="129.125" y2="150.31" gradientUnits="userSpaceOnUse">
<stop offset="0.01"/>
<stop offset="0.08" stop-opacity="0.69"/>
<stop offset="0.21" stop-opacity="0.32"/>
<stop offset="1" stop-opacity="0"/>
</linearGradient>
<linearGradient id="paint11_linear_1068_261" x1="136.353" y1="41.6904" x2="120.27" y2="71.4433" gradientUnits="userSpaceOnUse">
<stop offset="0.01" stop-color="white"/>
<stop offset="1" stop-color="white" stop-opacity="0"/>
</linearGradient>
<linearGradient id="paint12_linear_1068_261" x1="124.582" y1="40.9219" x2="139.792" y2="114.198" gradientUnits="userSpaceOnUse">
<stop offset="0.01"/>
<stop offset="0.08" stop-opacity="0.69"/>
<stop offset="0.21" stop-opacity="0.32"/>
<stop offset="1" stop-opacity="0"/>
</linearGradient>
<clipPath id="clip0_1068_261">
<rect width="177" height="155" fill="white"/>
</clipPath>
</defs>
</svg>
