<?xml version="1.0" encoding="UTF-8"?><svg id="a" xmlns="http://www.w3.org/2000/svg" viewBox="0 0 313.36 79.51"><defs><style>.b{fill:#f8a900;}.c{fill:#003264;}</style></defs><g><path class="c" d="M3.02,68.47l-2.33,6.07h.02c6.55-1.33,13.22-2.32,19.99-2.95l3.61-14.48c-3.2,.84-6.39,1.74-9.46,2.91-4.64,1.77-8.99,4.3-11.83,8.45Z"/><path class="c" d="M65.27,45.55c-4.24,2.09-11,4.11-14.16,4.86l5.28,21.17c6.77,.63,13.44,1.62,19.99,2.95h.02l-11.13-28.99Z"/><path class="c" d="M18.39,46.97c4.93-1.56,9.52-2.52,14.31-3.68,4.82-1.16,9.63-2.36,14.43-3.58,4.68-1.2,9.81-2.44,14.07-4.8,3.8-2.11,6.6-6.14,4.97-10.61-1.85,4.75-6.6,7-11.15,8.54-4.39,1.49-8.97,2.65-13.48,3.72-4.64,1.1-9.28,2.08-13.92,3.17-4.59,1.07-9.33,2.19-13.67,4.07-3.69,1.59-7.79,3.54-7.07,9.49,2.82-3.29,7.54-5.06,11.51-6.32Z"/><path class="c" d="M41.52,33.34c4.94-1.18,9.81-2.54,14.55-4.38,1.96-.76,3.98-1.74,5.47-3.25,1.5-1.51,2.32-4.03,1.43-6.05-1.17,2.44-3.29,4-5.66,5.16l-7.33-19.1h-10.01l5.75,23.06c-5.03,1.36-10.15,2.43-15.22,3.54l6.63-26.6h-10.01l-11.92,31.04c-2.21,1.04-4.13,2.64-4.15,5.99,1.2-1.09,3.73-2.76,9.76-4.5,9.96-2.88,11.9-2.78,20.72-4.9Z"/><path class="c" d="M67.2,40.12c2.2-2.29,3.38-6.1,2.04-9.11-2.88,6.56-10.64,8.76-16.98,10.54-6.69,1.88-13.46,3.55-20.22,5.17-6.34,1.52-12.86,2.76-18.82,5.5-5.14,2.36-9.87,5.76-9.97,13.29,2.84-4.15,7.19-6.68,11.83-8.45,5.1-1.94,10.49-3.16,15.76-4.53,3.07-.8,6.13-1.59,9.2-2.42,5.34-1.44,10.72-2.79,15.95-4.57,3.76-1.28,8.37-2.45,11.21-5.42Z"/></g><g><path class="c" d="M96.68,67.52v1.87h4.36v1.9h-4.36v3.25h-2.26v-9.06h7.08v2.04h-4.81Z"/><path class="c" d="M109.23,71.61v2.93h-1.94l-.32-1.27c-.57,1.06-1.78,1.38-3.02,1.38-1.09,0-2-.62-2-1.77,0-1.21,.93-2.01,2.96-2.03,.93,0,2.06,.19,2.06-.38,0-.26-.41-.49-1.85-.49-1.22,0-2.92,.44-3.01,.46v-1.68c.42-.14,1.99-.46,3.38-.46,2.65,0,3.74,1.18,3.74,3.29Zm-2.26,.07c-.32,.24-.85,.31-2.09,.31-.63,0-.84,.27-.84,.57,0,.33,.23,.53,.86,.53,.94,0,2.07-.59,2.07-1.4Z"/><path class="c" d="M112.5,71.51c0,.78,.42,1.53,1.62,1.53,.72,0,1.7-.29,2.56-.6v1.73c-.57,.31-1.69,.49-2.54,.49-2.47,0-3.89-1.12-3.89-3.15s1.42-3.19,3.71-3.19c.79,0,1.92,.18,2.72,.49v1.75c-.86-.31-1.83-.6-2.56-.6-1.2,0-1.62,.75-1.62,1.55Z"/><path class="c" d="M124.26,68.42v6.11h-2.26v-1.01c-.57,.6-1.31,1.12-2.32,1.12-1.25,0-1.98-.8-1.98-3.07v-3.16h2.25v2.96c0,.83,.19,1.39,.82,1.39,.41,0,.78-.24,1.23-.7v-3.65h2.26Z"/><path class="c" d="M125.62,74.54v-9.06h2.25v9.06h-2.25Z"/><path class="c" d="M132.5,70.08v2.02c0,.61,.41,.75,.84,.75,.45,0,.85-.03,1.78-.43v1.77c-1.23,.42-1.92,.48-3,.48-.79,0-1.89-.46-1.89-1.79v-2.79h-1.45v-1.65c1.48,0,1.66-.01,1.68-1.22v-.88c.72,0,1.37-.1,2.05-.25v2.35h2.62v1.65h-2.62Z"/><path class="c" d="M143.64,71.61v2.93h-1.94l-.32-1.27c-.57,1.06-1.78,1.38-3.02,1.38-1.09,0-2-.62-2-1.77,0-1.21,.93-2.01,2.96-2.03,.93,0,2.06,.19,2.06-.38,0-.26-.41-.49-1.85-.49-1.22,0-2.92,.44-3.01,.46v-1.68c.42-.14,1.99-.46,3.38-.46,2.65,0,3.74,1.18,3.74,3.29Zm-2.26,.07c-.32,.24-.85,.31-2.09,.31-.63,0-.84,.27-.84,.57,0,.33,.23,.53,.86,.53,.94,0,2.07-.59,2.07-1.4Z"/><path class="c" d="M152.17,65.37v9.17h-2.25v-1.04c-.65,.68-1.49,1.16-2.68,1.16s-2.57-1.18-2.57-3.23,1.43-3.11,3.01-3.11c.79,0,1.57,.2,2.24,.46v-3.18c.75,0,1.43-.07,2.25-.23Zm-2.25,6.67v-1.9c-.36-.11-.76-.2-1.06-.2-1.27,0-1.91,.46-1.91,1.48,0,.91,.65,1.45,1.43,1.45,.69,0,1.17-.4,1.55-.83Z"/><path class="c" d="M164.2,65.37v9.17h-2.25v-1.04c-.65,.68-1.49,1.16-2.68,1.16s-2.57-1.18-2.57-3.23,1.43-3.11,3.01-3.11c.79,0,1.57,.2,2.24,.46v-3.18c.75,0,1.43-.07,2.25-.23Zm-2.25,6.67v-1.9c-.36-.11-.76-.2-1.06-.2-1.27,0-1.91,.46-1.91,1.48,0,.91,.65,1.45,1.43,1.45,.69,0,1.17-.4,1.55-.83Z"/><path class="c" d="M169.51,73.15c1.02,0,2-.29,2.86-.6v1.62c-.57,.31-1.69,.49-2.88,.49-2.74,0-4.17-1.12-4.17-3.1s1.42-3.24,3.6-3.24c2.47,0,3.69,1.44,3.69,3.68h-4.97c.18,.65,.69,1.16,1.86,1.16Zm-1.9-2.12h2.82c-.11-.75-.55-1.08-1.49-1.08-.76,.02-1.21,.37-1.33,1.08Z"/><path class="c" d="M179.08,69.99c0,1.52,.69,2.71,2.38,2.71,.71,0,1.95-.21,3.02-.63v2.16c-.7,.27-2.12,.46-3.05,.46-2.38,0-4.62-1.25-4.62-4.7s2.24-4.65,4.62-4.65c.93,0,2.34,.19,3.05,.46v2.15c-1.08-.42-2.31-.63-3.02-.63-1.69,0-2.38,1.19-2.38,2.67Z"/><path class="c" d="M185.84,67.38v-1.9h2.26v1.9h-2.26Zm0,7.16v-6.11h2.25v6.11h-2.25Z"/><path class="c" d="M193.41,73.15c1.02,0,2-.29,2.86-.6v1.62c-.57,.31-1.69,.49-2.88,.49-2.74,0-4.17-1.12-4.17-3.1s1.42-3.24,3.6-3.24c2.47,0,3.69,1.44,3.69,3.68h-4.97c.18,.65,.69,1.16,1.86,1.16Zm-1.9-2.12h2.82c-.11-.75-.55-1.08-1.49-1.08-.76,.02-1.21,.37-1.33,1.08Z"/><path class="c" d="M204.54,71.38v3.16h-2.25v-2.96c0-.95-.19-1.39-.96-1.39-.38,0-.94,.18-1.52,.57v3.78h-2.26v-6c.75,0,1.44-.1,2.26-.23v1.09c.63-.5,1.7-1.09,2.77-1.09,1.22,0,1.96,.68,1.96,3.07Z"/><path class="c" d="M207.81,71.51c0,.78,.42,1.53,1.62,1.53,.72,0,1.7-.29,2.56-.6v1.73c-.57,.31-1.69,.49-2.54,.49-2.47,0-3.89-1.12-3.89-3.15s1.42-3.19,3.71-3.19c.79,0,1.92,.18,2.72,.49v1.75c-.86-.31-1.83-.6-2.56-.6-1.2,0-1.62,.75-1.62,1.55Z"/><path class="c" d="M213.12,67.38v-1.9h2.26v1.9h-2.26Zm0,7.16v-6.11h2.25v6.11h-2.25Z"/><path class="c" d="M224.02,71.61v2.93h-1.94l-.32-1.27c-.57,1.06-1.78,1.38-3.02,1.38-1.09,0-2-.62-2-1.77,0-1.21,.93-2.01,2.96-2.03,.93,0,2.06,.19,2.06-.38,0-.26-.41-.49-1.85-.49-1.22,0-2.92,.44-3.01,.46v-1.68c.42-.14,1.99-.46,3.38-.46,2.65,0,3.74,1.18,3.74,3.29Zm-2.26,.07c-.32,.24-.85,.31-2.09,.31-.63,0-.84,.27-.84,.57,0,.33,.23,.53,.86,.53,.94,0,2.07-.59,2.07-1.4Z"/><path class="c" d="M229.43,70.9c1.66,.34,2.3,1.02,2.3,1.98,0,1.3-1.1,1.77-3.19,1.77-1.36,0-2.53-.19-3.35-.46v-1.72c1.27,.51,2.08,.65,2.96,.65,.99,0,1.31-.1,1.31-.35,0-.38-.83-.38-1.96-.61-1.45-.29-2.46-.79-2.46-1.92,0-1.21,1.15-1.92,3.04-1.92,1.34,0,2.85,.36,3.48,.5v1.63c-1.08-.31-2-.45-2.92-.45-.84,0-1.35,.12-1.35,.31,0,.28,1.37,.46,2.15,.62Z"/><path class="c" d="M243.54,65.37v9.17h-2.25v-1.04c-.65,.68-1.49,1.16-2.68,1.16s-2.57-1.18-2.57-3.23,1.43-3.11,3.01-3.11c.79,0,1.57,.2,2.24,.46v-3.18c.75,0,1.43-.07,2.25-.23Zm-2.25,6.67v-1.9c-.36-.11-.76-.2-1.06-.2-1.27,0-1.91,.46-1.91,1.48,0,.91,.65,1.45,1.43,1.45,.69,0,1.17-.4,1.55-.83Z"/><path class="c" d="M248.85,73.15c1.02,0,2-.29,2.86-.6v1.62c-.57,.31-1.69,.49-2.88,.49-2.74,0-4.17-1.12-4.17-3.1s1.42-3.24,3.6-3.24c2.47,0,3.69,1.44,3.69,3.68h-4.97c.18,.65,.69,1.16,1.86,1.16Zm-1.9-2.12h2.82c-.11-.75-.55-1.08-1.49-1.08-.76,.02-1.21,.37-1.33,1.08Z"/><path class="c" d="M256.38,74.54v-9.06h2.25v9.06h-2.25Z"/><path class="c" d="M267.27,71.61v2.93h-1.94l-.32-1.27c-.57,1.06-1.78,1.38-3.02,1.38-1.09,0-2-.62-2-1.77,0-1.21,.93-2.01,2.96-2.03,.93,0,2.06,.19,2.06-.38,0-.26-.41-.49-1.85-.49-1.22,0-2.92,.44-3.01,.46v-1.68c.42-.14,1.99-.46,3.38-.46,2.65,0,3.74,1.18,3.74,3.29Zm-2.26,.07c-.32,.24-.85,.31-2.1,.31-.63,0-.84,.27-.84,.57,0,.33,.23,.53,.86,.53,.94,0,2.07-.59,2.07-1.4Z"/><path class="c" d="M278.84,67.84c-.8-.27-2-.45-2.91-.45-.72,0-1.9,.11-1.9,.65,0,1,4.98,.86,4.98,4.21,0,1.7-1.35,2.46-3.4,2.46-1.33,0-2.79-.32-3.82-.61v-2.01c.44,.12,1.88,.66,3.34,.66,1,0,1.61-.25,1.61-.67,0-1.25-5.06-1.02-5.06-4.02,0-1.68,1.55-2.71,3.92-2.71,1.1,0,2.58,.2,3.24,.46v2.04Z"/><path class="c" d="M287.42,71.61v2.93h-1.94l-.32-1.27c-.57,1.06-1.78,1.38-3.02,1.38-1.09,0-2-.62-2-1.77,0-1.21,.93-2.01,2.96-2.03,.93,0,2.06,.19,2.06-.38,0-.26-.41-.49-1.85-.49-1.22,0-2.92,.44-3.01,.46v-1.68c.42-.14,1.99-.46,3.38-.46,2.65,0,3.74,1.18,3.74,3.29Zm-2.26,.07c-.32,.24-.85,.31-2.09,.31-.63,0-.84,.27-.84,.57,0,.33,.23,.53,.86,.53,.94,0,2.07-.59,2.07-1.4Z"/><path class="c" d="M288.67,74.54v-9.06h2.25v9.06h-2.25Z"/><path class="c" d="M298.73,68.42v6.11h-2.26v-1.01c-.57,.6-1.31,1.12-2.32,1.12-1.25,0-1.98-.8-1.98-3.07v-3.16h2.25v2.96c0,.83,.19,1.39,.82,1.39,.41,0,.78-.24,1.23-.7v-3.65h2.26Z"/><path class="c" d="M307.37,65.37v9.17h-2.25v-1.04c-.65,.68-1.49,1.16-2.68,1.16s-2.57-1.18-2.57-3.23,1.43-3.11,3.01-3.11c.79,0,1.57,.2,2.24,.46v-3.18c.75,0,1.43-.07,2.25-.23Zm-2.25,6.67v-1.9c-.36-.11-.76-.2-1.06-.2-1.27,0-1.91,.46-1.91,1.48,0,.91,.65,1.45,1.43,1.45,.69,0,1.17-.4,1.55-.83Z"/></g><rect class="b" x="82.4" y="5.4" width="1.4" height="69.14"/><g><path class="c" d="M143.71,5.4v30.55c0,17.68-9.48,24.46-24.59,24.46s-24.59-6.77-24.59-24.46V5.4h13.55v27.17c0,11.58,4.34,15.99,11.04,15.99s11.04-4.4,11.04-15.99V5.4h13.55Z"/><path class="c" d="M202.98,25.05c0,15.04-12.19,19.17-24.66,19.17h-10.91v15.38h-13.55V5.4h23.78c11.79,0,25.34,3.52,25.34,19.65Zm-13.68,.07c0-4.54-2.91-7.52-10.3-7.52h-11.58v14.43h11.58c7.39,0,10.3-2.91,10.3-6.91Z"/><path class="c" d="M232.78,51.27c6.1,0,11.99-1.76,17.14-3.59v9.69c-3.39,1.83-10.09,2.91-17.21,2.91-16.39,0-24.93-6.71-24.93-18.56s8.47-19.38,21.54-19.38c14.77,0,22.09,8.6,22.09,22.02h-29.74c1.08,3.86,4.13,6.91,11.11,6.91Zm-11.38-12.67h16.87c-.68-4.47-3.32-6.44-8.94-6.44-4.54,.14-7.25,2.24-7.93,6.44Z"/><path class="c" d="M307.37,5.4v30.55c0,17.68-9.48,24.46-24.59,24.46s-24.59-6.77-24.59-24.46V5.4h13.55v27.17c0,11.58,4.34,15.99,11.04,15.99s11.04-4.4,11.04-15.99V5.4h13.55Z"/></g></svg>