<svg width="400" height="360" xmlns="http://www.w3.org/2000/svg" data-name="Capa 1">

 <g>
  <title>Layer 1</title>
  <path id="svg_1" fill="#003865" d="m98.52,190.74c0.13,-8.1 3,-14.56 8.76,-18.17c5.2,-3.23 7.35,-7.61 9.28,-12.65q16.38,-42.58 32.71,-85.2c2.22,-5.8 4.49,-11.6 6.45,-17.49c1.27,-3.79 2.82,-5.93 7.55,-5.73c10.68,0.46 21.39,0.14 32.67,0.14c-8.2,33.09 -16.31,65.8 -24.61,99.31c18,-4.13 35.16,-8 52.23,-12.1c0.92,-0.23 2.17,-2.7 1.9,-3.79c-6.18,-25.44 -12.55,-50.82 -18.86,-76.22c-0.55,-2.2 -0.92,-4.46 -1.47,-7.19c12,0 23.85,-0.09 35.69,0.15c1.15,0 2.79,1.92 3.32,3.29c8.75,22.37 17.36,44.79 26.19,67.67c8.47,-4.14 15.18,-9.94 19.83,-18.64a20.68,20.68 0 0 1 -3,21.75c-9.24,10.72 -22.07,14.87 -34.79,18.43c-24.55,6.87 -49.38,12.77 -74.16,18.82c-22.88,5.59 -46.09,10 -67.57,20.19c-3.96,1.87 -7.51,4.57 -12.12,7.43z" class="cls-1"/>
  <path id="svg_2" fill="#003865" d="m340.67,306c-7.36,-1.28 -14.09,-2.56 -20.87,-3.62c-10.54,-1.64 -21.1,-3.22 -31.68,-4.65c-6.37,-0.86 -12.85,-1.08 -19.15,-2.27c-1.77,-0.34 -4,-2.86 -4.48,-4.78c-4,-15.19 -7.53,-30.49 -11.3,-45.73c-2.55,-10.31 -5.24,-20.58 -7.82,-30.7l52.86,-18.74c13.77,35.76 27.95,72.81 42.44,110.49z" class="cls-1"/>
  <path id="svg_3" fill="#003865" d="m69.7,271.09c0,-3.06 -0.36,-6.18 0.06,-9.19c2.27,-16.11 12.81,-26.43 25.72,-34.38c19.37,-11.93 41.27,-17.14 63.15,-22.27c17.84,-4.18 35.68,-8.4 53.39,-13.08c20.71,-5.48 41.53,-10.71 61.81,-17.51c16.52,-5.54 31.7,-14 39.54,-32.59c3.15,7.46 2.77,14 1.37,20.4c-3.25,14.89 -14.32,23.05 -27.33,27.48c-25.2,8.6 -50.83,16 -76.44,23.34c-30.33,8.69 -60.9,16.55 -91.24,25.23a101.21,101.21 0 0 0 -38.6,21.07c-3.81,3.3 -6.75,7.59 -10.08,11.43l-1.35,0.07z" class="cls-1"/>
  <path id="svg_4" fill="#003865" d="m84.6,227.68c-3.43,-5.57 -2.21,-13.16 2,-19.1c7.28,-10.23 17.92,-15.72 29.21,-19.1c21.59,-6.46 43.52,-11.81 65.39,-17.3c30.12,-7.56 60.91,-12.72 89.93,-24.25c12.29,-4.89 22.92,-12.25 29.21,-24.53a21.28,21.28 0 0 1 1.66,-2.4c4.91,8.83 1.16,22.21 -5.68,29.76c-9.61,10.61 -22.29,15.67 -35.49,19.3c-24.6,6.75 -49.39,12.81 -74.08,19.21c-21.68,5.63 -43.45,10.93 -65,17.13c-13.88,4.03 -26.96,10.23 -37.15,21.28z" class="cls-1"/>
  <path id="svg_5" fill="#003865" d="m61.13,305.92c4.44,-20.92 14.87,-36.92 33.8,-47.34c16.82,-9.22 35,-14.07 54.25,-19.67c-1.34,6 -2.37,11.05 -3.6,16c-2.9,11.75 -6,23.44 -8.81,35.2c-1,4 -2.88,5.3 -7.08,5.72c-14.06,1.41 -28.08,3.34 -42.07,5.37c-8.89,1.33 -17.7,3.15 -26.49,4.72z" class="cls-1"/>
 </g>
</svg>